/* XPM */
static char *dummy[]={
"22 22 110 2",
"Qt c None",
"#K c #000000",
".X c #3768a6",
".3 c #396aa7",
"#r c #3c6ca8",
"#a c #3c6ca9",
"#f c #3e6eab",
".W c #4473af",
".M c #4a75ad",
".l c #4b77ae",
".r c #4c77ae",
".w c #4c77af",
".C c #4c78af",
".Y c #4d7cb5",
".T c #4f7db4",
".Z c #5382ba",
"#Q c #545652",
"#B c #555753",
".0 c #5686bc",
"#P c #575855",
".k c #577eb0",
"#t c #577fb1",
".2 c #5987bd",
"#N c #5a5c58",
".1 c #5a89bf",
".9 c #5b8ac0",
"#C c #5c5e5a",
"#. c #5f8dc1",
"## c #618fc3",
"#g c #6391c4",
"#O c #646563",
".N c #668dbd",
"#R c #676966",
"#h c #6794c7",
".V c #698cb8",
"#l c #6997c9",
"#m c #6c9acb",
"#x c #6d98c8",
"#y c #6e9bcc",
"#s c #6f9ccd",
".4 c #7092be",
".S c #7096c4",
"#M c #757773",
"#L c #7c7e79",
"#H c #80827d",
"#D c #838580",
".K c #83a2c8",
"#J c #858782",
".R c #86a7ce",
"#p c #878984",
".# c #888a85",
".a c #898c89",
"#z c #89abcf",
"#d c #8a8d8a",
".q c #90add0",
".Q c #96b3d4",
".i c #97b0d0",
".m c #99b2d2",
".v c #9bb3d3",
".t c #9cb4d3",
".7 c #9db2c9",
".u c #9db6d4",
".b c #9ea4a7",
".h c #9eb4cf",
".y c #9eb4d0",
".o c #9fa5a9",
".z c #a0b8d6",
".D c #a0bad8",
".6 c #a1a7aa",
".F c #a1b7d2",
".E c #a2b9d7",
"#c c #a3a9ac",
".I c #a3bbd8",
".O c #a3bcda",
"#o c #a5abad",
".J c #a5bcd9",
"#G c #a6acaf",
".P c #a7bfdb",
"#w c #aabed3",
".j c #abb1b5",
".n c #abb1b6",
".g c #aebdcf",
".x c #aebed1",
"#A c #afbed1",
"#q c #b2b8bc",
"#u c #b4b9bc",
"#I c #b5b8b1",
".c c #bbbfc2",
".B c #bec2c5",
".G c #bec3c5",
".U c #bfc4c6",
".5 c #c2c5c7",
"#E c #c6cacc",
".f c #ccd0d1",
".e c #ced0cf",
".d c #cfd1d3",
"#e c #d2d6d8",
".H c #d3d4d4",
"#j c #d3d7d9",
".L c #d4d5d5",
"#v c #d6d9dc",
"#F c #dadbdb",
"#b c #dae4ef",
".8 c #dbe4f0",
"#k c #dde7f2",
"#i c #dee8f2",
"#n c #dfe9f3",
".p c #e5ebf3",
".s c #e6ecf3",
".A c #e7ecf4",
"QtQtQtQtQt.#.#.#.#.#.#.#.#QtQtQtQtQtQtQtQtQt",
"QtQtQt.#.#.a.b.c.d.e.c.b.a.#.#QtQtQtQtQtQtQt",
"QtQt.#.#.b.f.g.h.i.i.h.g.d.b.#.#QtQtQtQtQtQt",
"Qt.#.#.j.k.l.l.m.i.i.i.l.l.k.n.#.#QtQtQtQtQt",
"Qt.#.o.k.p.p.p.l.m.q.r.s.p.p.k.o.#QtQtQtQtQt",
".#.a.d.r.p.r.r.m.t.u.v.w.r.s.r.d.a.#QtQtQtQt",
".#.o.x.l.s.r.y.u.u.z.u.u.w.A.r.x.o.#QtQtQtQt",
".#.B.y.m.C.u.u.D.E.E.E.E.E.w.u.F.G.#QtQtQtQt",
".#.H.m.v.u.D.I.D.I.J.J.J.D.E.E.K.L.#QtQtQtQt",
".#.L.M.N.K.q.u.O.P.J.D.Q.R.S.T.C.L.#QtQtQtQt",
".#.U.V.W.X.Y.Z.0.1.1.1.2.0.3.T.4.5.#QtQtQtQt",
".#.6.7.X.8.3.0.9#.#####.#a#b.3.h#c.#QtQtQtQt",
".##d#e.3#b#a#f#.#g#h#h#f#a#i#a#j.a.#QtQtQtQt",
"Qt.##c.k#b#b#k#f#l#m#f#n#i#b.k#o.#QtQtQtQtQt",
"Qt.##p#q.k.3#r###l#s#s#f.W#t#u.#.#QtQtQtQtQt",
"QtQt.#.##o#v#w.R#x#y#z#A#j#o.#.##B#CQtQtQtQt",
"QtQtQt#D#p#d#o#E#F#F#E#G.a#p#H#B#I#J#B#KQtQt",
"QtQtQtQtQt#L#D#p.#.##p#D#MQtQt#N#O#P#I#BQtQt",
"QtQtQtQtQtQtQtQtQtQtQtQtQtQtQtQt#Q#p#O#I#BQt",
"QtQtQtQtQtQtQtQtQtQtQtQtQtQtQtQtQt#B.##R#I#B",
"QtQtQtQtQtQtQtQtQtQtQtQtQtQtQtQtQtQt#Q.#.##B",
"QtQtQtQtQtQtQtQtQtQtQtQtQtQtQtQtQtQtQt#B#B#K"};
