/* XPM */
static char *dummy[]={
"22 22 10 1",
". c None",
"g c #000000",
"b c #0000ff",
"d c #008000",
"h c #00ff00",
"# c #808080",
"f c #c0c0c0",
"c c #ff0000",
"e c #ffff00",
"a c #ffffff",
"......................",
"......................",
"....###############...",
"....#aaaaaa#aaa.aa#...",
"....#abbaab#aacaca#...",
"....#baabba#ccacac#...",
"....#aaaaaa#aaaaaa#...",
"....###############...",
"....#daaaaa#eeeaaa#...",
"....#adadaa#aaeeee#...",
"....#aaaaaa#aaaaaa#...",
"....#aaaaaa#aaaaaa#...",
"..ffffffffffffffffff..",
".fffffffffffffffffffg.",
".ff#################g.",
".ff#h###############g.",
".ff#################g.",
".ff#################g.",
".ff#################g.",
".ff#################g.",
"..ggggggggggggggggggg.",
"......................"};
