/* XPM */
static char *dummy[]={
"16 16 7 1",
". c None",
"d c #000000",
"b c #0000ff",
"e c #00ff00",
"# c #808080",
"c c #c0c0c0",
"a c #ffffff",
"................",
"...###########..",
"...#aaaaaaaaa#..",
"...#aaaaaaaaa#..",
"...#aabbaaaab#..",
"...#abaabaaba#..",
"...#baaaabbaa#..",
"...#aaaaaaaaa#..",
"...#aaaaaaaaa#..",
"cccccccccccccccc",
"c##############d",
"c##############d",
"c##e###########d",
"c##############d",
"c##############d",
"cddddddddddddddd"};
