/* XPM */
static char *dummy[]={
"16 16 3 1",
". c None",
"# c #000000",
"a c #808080",
"................",
".....###........",
"....##..#.......",
"........#.......",
"......##....#...",
"......#....#a#..",
"..........#aaa#.",
"......#..#aaa#..",
"...##...#aaa#...",
"..#aa#.#aaa#....",
"..#aaa#aaa#.....",
"...#aaaaa#......",
"....#aaa#.......",
".....#a#........",
"......#.........",
"................"};
