/* XPM */
static char *trick_small[] = {
/* columns rows colors chars-per-pixel */
"93 30 228 2",
"   c #000200",
".  c #000407",
"X  c #070000",
"o  c #040107",
"O  c #040702",
"+  c #00070A",
"@  c #070905",
"#  c #050B0E",
"$  c #090100",
"%  c #0A0301",
"&  c #0D0604",
"*  c #090C08",
"=  c #0D0F0C",
"-  c #0F110E",
";  c #0C1113",
":  c #110B09",
">  c #15100E",
",  c #111310",
"<  c #121411",
"1  c #101517",
"2  c #121618",
"3  c #161815",
"4  c #171816",
"5  c #1A1615",
"6  c #181619",
"7  c #191A18",
"8  c #1A1C19",
"9  c #1D1A19",
"0  c #1E1F1D",
"q  c #1B2526",
"w  c #1D2123",
"e  c #1F2325",
"r  c #231F1E",
"t  c #211F22",
"y  c #212320",
"u  c #232422",
"i  c #242523",
"p  c #252724",
"a  c #272528",
"s  c #262825",
"d  c #262A2C",
"f  c #292524",
"g  c #2A2C29",
"h  c #2D2928",
"j  c #2F2A29",
"k  c #2C2D2B",
"l  c #2D2F2C",
"z  c #2E3234",
"x  c #322E2D",
"c  c #30322F",
"v  c #323431",
"b  c #353130",
"n  c #363835",
"m  c #34383A",
"M  c #38363A",
"N  c #393B38",
"B  c #3B3D3A",
"V  c #3D3938",
"C  c #3D3E3C",
"Z  c #3E3C3F",
"A  c #3E403D",
"S  c #3F403E",
"D  c #3C4143",
"F  c #40423F",
"G  c #44403F",
"H  c #434144",
"J  c #434442",
"K  c #484342",
"L  c #484A47",
"P  c #4C4847",
"I  c #4A484C",
"U  c #4A4C49",
"Y  c #484C4E",
"T  c #4B4F51",
"R  c #515350",
"E  c #555150",
"W  c #53575A",
"Q  c #58565A",
"!  c #595B58",
"~  c #5E5F5D",
"^  c #625D5C",
"/  c #645F5E",
"(  c #60625F",
")  c #636562",
"_  c #676361",
"`  c #666865",
"'  c #63686A",
"]  c #686967",
"[  c #6D6867",
"{  c #696B68",
"}  c #6E706D",
"|  c #6C7073",
" . c #736F6D",
".. c #706E72",
"X. c #717370",
"o. c #737572",
"O. c #757377",
"+. c #747673",
"@. c #777976",
"#. c #757A7D",
"$. c #797B78",
"%. c #7B7D7A",
"&. c #7D7F7C",
"*. c #7A7F82",
"=. c #7F817E",
"-. c #7F8487",
";. c #818380",
":. c #848583",
">. c #868885",
",. c #868B8E",
"<. c #888A87",
"1. c #8A8C89",
"2. c #8E908D",
"3. c #908A89",
"4. c #928C8B",
"5. c #918E92",
"6. c #90928F",
"7. c #929491",
"8. c #969190",
"9. c #949296",
"0. c #949693",
"q. c #969895",
"w. c #94999B",
"e. c #9A9593",
"r. c #9A979C",
"t. c #9A9B98",
"y. c #9E9998",
"u. c #9A9FA2",
"i. c #9EA09D",
"p. c #9FA19E",
"a. c #A29D9C",
"s. c #A1A3A0",
"d. c #A3A0A4",
"f. c #A3A5A2",
"g. c #A6A1A0",
"h. c #A4A6A3",
"j. c #A5A7A4",
"k. c #A2A7AA",
"l. c #A8AAA7",
"z. c #AAA8AC",
"x. c #AAACA9",
"c. c #ADAFAC",
"v. c #A7B0AB",
"b. c #AFB4B6",
"n. c #B5AFAE",
"m. c #B0B2AE",
"M. c #B2B0B4",
"N. c #B3B5B2",
"B. c #B5B3B7",
"V. c #B5B7B4",
"C. c #B7B4B9",
"Z. c #B5BABC",
"A. c #BAB5B3",
"S. c #B8BAB7",
"D. c #BEB9B7",
"F. c #B9BBB8",
"G. c #BABCB9",
"H. c #BDBBBF",
"J. c #BCBEBB",
"K. c #BEBCC0",
"L. c #BEC1BD",
"P. c #BEC3C5",
"I. c #C4BFBD",
"U. c #C5C7C4",
"Y. c #C6C4C8",
"T. c #C7C9C6",
"R. c #CAC4C3",
"E. c #CDC7C6",
"W. c #C9CBC8",
"Q. c #CACCC9",
"!. c #CDCBCF",
"~. c #CCCECB",
"^. c #C9CED0",
"/. c #CFD1CE",
"(. c #CCD1D4",
"). c #D5CFCE",
"_. c #D1D3D0",
"`. c #D3D1D5",
"'. c #D3D5D2",
"]. c #D7D1D0",
"[. c #D5D3D7",
"{. c #D5D7D4",
"}. c #D0D5D8",
"|. c #D7D9D6",
" X c #D5DADC",
".X c #D9D3D2",
"XX c #D9D7DB",
"oX c #DDD8D6",
"OX c #DADCD9",
"+X c #DCDFDB",
"@X c #D8DEE0",
"#X c #DEE1DD",
"$X c #DDE3E5",
"%X c #DBE8E9",
"&X c #E3DDDC",
"*X c #E0DDE2",
"=X c #E5E0DE",
"-X c #E2E0E4",
";X c #E2E4E1",
":X c #E5E7E3",
">X c #E2E7EA",
",X c #E6E3E8",
"<X c #E6E8E5",
"1X c #E7E9E6",
"2X c #E8E2E1",
"3X c #EAE5E4",
"4X c #EDE7E6",
"5X c #E8E5EA",
"6X c #EAECE9",
"7X c #ECEEEB",
"8X c #E9EEF0",
"9X c #EBF0F3",
"0X c #F1ECEA",
"qX c #F1F3F0",
"wX c #F7F1F0",
"eX c #F5F7F4",
"rX c #F7FAF6",
"tX c #F6FBFE",
"yX c #FDF7F6",
"uX c #F9FBF8",
"iX c #FBF8FD",
"pX c #FAFCF9",
"aX c #FBFDFA",
"sX c #F9FEFF",
"dX c #FFFBFA",
"fX c #FCFFFB",
"gX c gray100",
"hX c None",
/* pixels */
"hXhXhXhXhXhXhXhXhXhXhXhXhXhXhXhXhXhXhXhXhXhXhXhXhXhXhXhXhXhXhXhXhXhXhXhXhXhXhXhXhXhXhXhXhXhXhXhXhXhXhXhXhXhXhXhXhXhXhXhXhXhXhXhXhXhXhXhXhXhXhXhXhXhXhXhXhXhXhXhXhXhXhXhXhXhXhXhXhXhXhXhXhX",
"hXhXhXhXhXhXhXhXhXhXhXhXhXhXhXhXhXhXhXhXhXhXhXhXhXhXhXhXhXhXhXhXhXhXhXhXhXhXhXhXhXhXhXhXhXhXhXhXhXhXhXhXhXhXhXhXhXhXhXhXhXhXhXhXhXhXhXhXhXhXhXhXhXhXhXhXhXhXhXhXhXhXhXhXhXhXhXhXhXhXhXhXhX",
"hXhXhXhXhXhXhXhXhXhXhXhXhXhXhXhXhXhXhXhXhXhXhXhXhXhXhXhXhXhX;X+X'.{.'.+XhXhXhXhXhXhXhXhXhXhXhXhXhXhXhXhXV.t.t.t.t.+XhXhXhXhXhXhXhXhXhXhXhXhXhXhXhXhXhXhXhXhXhXhXhXhXhXhXhXhXhXhXhXhXhXhXhX",
"hXhXhXhXhXhXhX~.h.v.c.c._.hXhXhXhXhXhXhXhXhXhXhXhXhXhXhXhXhX2.- , = - S hXhXhXhXhXhXhXhXhXhXhXhXhXhXhX~.c . O # o S.hXhXhXhXhXhXhXhXhXhXhXhXhXhXhXhXhXhXhXhXhXhXhXhXhXhXhXhXhXhXhXhXhXhXhX",
"hXhXhXhXhXhX<X` : # , < 2.hXhXhXhXhXhXhXhXhXhXhXhXhXhXhXhXhX_ o   o   / hXhXhXhXhXhXhXhXhXhXhXhXhXhXhXZ.5 . X O 1 OXhXhXhXhXhXhXhXhXhXhXhXhXhXhXhXhXhXhXhXhXhXhXhXhXhXhXhXhXhXhXhXhXhXhXhX",
"hXhXhXhXhXhX@XG o % o o H.hXhXhXhXhXhXhXhXhXhXhXhXhXhXhXhXhXm X o % o ,.hXhXhXhXhXhXhXhXhXhXhXhXhXhXhX3.# X X o b hXhXhXhXhXhXhXhXhXhXhXhXhXhXhXhXhXhXhXhXhXhXhXoXm.B.D.`.hXhXhXhXhXhXhXhX",
"hXhXhX2X].).d.r   % % : n.`.].5XhX].C.D.A.D.4X=XB.( K I y.=XO./ Q ( [ E.hXhXhX,XE.r.[ P H E [ e.).-XhX/ . . X X / hXhXhX3Xz.8.9.r.9.C.-XhXhXhXhXhXhXhXhXhXhX@XH.oXyXiXwXD.hXhXhXhXhXhXhXhX",
"hXhXhXl.m d r o o % % o d b z h.hX| - # 6 z b.5.5 o + > 9.$Xn.C.A.B.P.hXhXhXT.] d @ . O X   . # N R.hXz X X . @ 5.hXhXhX#.9 o % @ 5 s.hXhXhXhXhXhXhXhXhXhXY.@.,XiXsXgXsX`._.hXhXhXhXhXhXhX",
"hXhXhXo.& .     o + O X . X . b.:XY o   % z *.e o % o q H.k.0 w 0 e W  XhXb.D @ . . o   . o   . m  X$X2 .   . 1 Z.hXhXi.1 O   . 2 -.%XhXhXhXhXhXhXhXhXhXx.z d P.tXsXsXsX8X(.%XhXhXhXhXhXhX",
"hXhXhXH .           . .     = +X{.v O   o 5 2       @ K +XX.    o & ` 0Xh.a % o X X @ w p s 5 o } hXA.O   . X n {.hX2.6   o . r t.hXhXhXhXhXhXhXhXhX#X$.; X @ o.eXiXuX8XOXx.oXhXhXhXhXhXhX",
"hXhXhXR j e       X @ p z j I hXG.r o     O   @ m / ( 5.>XT     O @ -.XXn O   .   w  .C.!.P.l.*.J.hX5.X X . O E <Xr.u       1 w.hXhX<X{.#XhXhXhXhX@XX.* . . o g _.>Xa._ M d %.hXhXhXhXhXhX",
"hXhXhX[.}.3.o o o   m H.]. X{.hXr.;     + X j 5.oX>X@X+X_.v o %   6 g.7.o o     3 1.hXhXhXhXhXhXhXhX!     O + #.z.u o   O > :.hXhXt.Z M H 2.hXhX=Xy.y o X O O o ] R 5 #   X t #XhXhXhXhXhX",
"hXhXhXhXhX@.O     : ) hXhXhXhXhX .o o     d c.hXhXhXhXhXM.8 + o   g C.Z   o O @ { hXhXhXhXhXhXhXhX@XM   o X % L y &   o 2 3.7XW.E O     o : ;.^.P.0X=.  o o @ f  .# X       o ;.hXhXhXhXhX",
"hXhXhXhXhXE X   o # 5.hXhXhXhX=XW O O % O  .hXhXhXhXhXhX6.:     . F x.j o   o 5 d.hXhXhXhXhXhXhXhXI.u     . @ o o . o @ %.>X`.M . o       o M F.yXtXXX<     B b.tXV o o o . O m '.hXhXhXhX",
"hXhXhXhX$Xn %   % 3 c.hXhXhXhX_.b X . o # F.hXhXhXhXhXhX| @     o ~ u.8     . y J.hXhXhXhXhXhXhXhXi.> X   o 3 s   O X o t.aXh.    X o % @   # m.gXaXiX( % Q oXyXgXi.- O X o   # 7.hXhXhXhX",
"hXhXhXhXI.t o     m `.hXhXhXhXI.2 .     7 ,XhXhXhXhXhX#XL o X     5.j.5 X X   w H.hXhXhXhXhXhXhXhXO.o .   O E 4.6 X o   K OX0Xa o o O + o < 5 G 0XaXgXk.o.:XtXrXiX,XE X < F o.e.e.:XhXhXhX",
"hXhXhXhXl.3 o     J =XhXhXhXhX7.@   o o n hXhXhXhXhXhX`.g . o % @ D.Z.w o   X = ;.hXhXhXhXhXhXhX<X!   o o . -.W.v   % o 6 w.eX>.@ X   < ( u.h.| Z.eXS.z ( 6XiXgXuXtXw.m r.-XtXsX@X^.hXhXhX",
"hXhXhXhX9.6   o   Z  XhXN.j.hXO.. o O   / hXhXhXhXhXhXG.6     . 1  X+Xv   o   o a s.hXhXhXhX&XhX).m O   O O c.hX..      O U <X].m o 8 5.>XgXiX7XA.O.p % w U.uXpXeXqX .$.rXaXyXsXuXA.hXhXhX",
"hXhXhXhXt.= O     : p t 6 +.;XV   X o # q.hXhXhXhXhXhX<.@     X x hXhX5.O o   O o - N ( ( F L }.F.6   o o 6 +XhX!.1 o o o 6 9.yX0.p b.yXiXaXaXsX=XZ + % O / tXeX&XW o t 5XpXyXsXgX8XB.hXhX",
"hXhXhXhXb.r %     . o   3 z.=X7       3 H.hXhXhXhXhXhX( o       W hXhX+Xm @   o   o o o o o I #X8.O       l hXhXhXE O       B qX-Xt.yXpXaXaXyXyX0X5.:   o 1 E.Y.U O O O i.uXgXuXeX2Xb.,XhX",
"hXhXhXhX@XY o o     . o ) $XW.o o   . v {.hXhXhXhXhXhXS o o o & =.hXhXhXG.V @ %     O   O @  .=X..o o   o ! hXhXhXy.= O . . # x.hXG.9XpXiXaXpX9X1X(.z     O S d & o o   D +XtXH.G.).}.-XhX",
"hXhXhXhXhX~.) l j x E t.4XhXM.S F F V %.4XhXhXhXhXhX<XE S F N L H.hXhXhXhXOX2.B f 9 5 9 f G c.hX` Z S B F a.hXhXhX=X( G S S C :.hX5XL.rXaX<X7.c & p j   & N y.5 o X     : &.A.:XhXhXhXhXhX",
"hXhXhXhXhXhX3X}.U.].2XhXhXhXhX2X2X<X,X2XhXhXhXhXhXhXhX:X2X3X2X2XhXhXhXhXhXhXhX+XI.M.c.A.E.@XhXhX4X2X3X4X3XhXhXhXhXhX=X3X=X:X3X3XhXhXR.3X-X_ : + X o % ; / ).8X/ & X X X a 8.hXhXhXhXhXhXhX",
"hXhXhXhXhXhXhXhXhXhXhXhXhXhXhXhXhXhXhXhXhXhXhXhXhXhXhXhXhXhXhXhXhXhXhXhXhXhXhXhXhXhXhXhXhXhXhXhXhXhXhXhXhXhXhXhXhXhXhXhXhXhXhXhXhXhX*Xc.E o o X   O o j !.tXyXu.; . o w n.hXhXhXhXhXhXhXhX",
"hXhXhXhXhXhXhXhXhXhXhXhXhXhXhXhXhXhXhXhXhXhXhXhXhXhXhXhXhXhXhXhXhXhXhXhXhXhXhXhXhXhXhXhXhXhXhXhXhXhXhXhXhXhXhXhXhXhXhXhXhXhXhXhXhXhXhXw.1 @ . o o   # ; 0.sXaX9XT # K }.hXhXhXhXhXhXhXhXhX",
"hXhXhXhXhXhXhXhXhXhXhXhXhXhXhXhXhXhXhXhXhXhXhXhXhXhXhXhXhXhXhXhXhXhXhXhXhXhXhXhXhXhXhXhXhXhXhXhXhXhXhXhXhXhXhXhXhXhXhXhXhXhXhXhXhXhXhX@XV o % . @ a H M | 7XiXaXu.'  XhXhXhXhXhXhXhXhXhXhX",
"hXhXhXhXhXhXhXhXhXhXhXhXhXhXhXhXhXhXhXhXhXhXhXhXhXhXhXhXhXhXhXhXhXhXhXhXhXhXhXhXhXhXhXhXhXhXhXhXhXhXhXhXhXhXhXhXhXhXhXhXhXhXhXhXhXhXhXhX3.. % o ..^.&X(.n.6XyXoXJ.,XhXhXhXhXhXhXhXhXhXhXhX",
"hXhXhXhXhXhXhXhXhXhXhXhXhXhXhXhXhXhXhXhXhXhXhXhXhXhXhXhXhXhXhXhXhXhXhXhXhXhXhXhXhXhXhXhXhXhXhXhXhXhXhXhXhXhXhXhXhXhXhXhXhXhXhXhXhXhXhXhXhXf ; 1.hXhXhXhX].|.'.U.hXhXhXhXhXhXhXhXhXhXhXhXhX",
"hXhXhXhXhXhXhXhXhXhXhXhXhXhXhXhXhXhXhXhXhXhXhXhXhXhXhXhXhXhXhXhXhXhXhXhXhXhXhXhXhXhXhXhXhXhXhXhXhXhXhXhXhXhXhXhXhXhXhXhXhXhXhXhXhXhXhXhXhXt.:.<XhXhXhXhX4X~.).hXhXhXhXhXhXhXhXhXhXhXhXhXhX",
"hXhXhXhXhXhXhXhXhXhXhXhXhXhXhXhXhXhXhXhXhXhXhXhXhXhXhXhXhXhXhXhXhXhXhXhXhXhXhXhXhXhXhXhXhXhXhXhXhXhXhXhXhXhXhXhXhXhXhXhXhXhXhXhXhXhXhXhXhXhX&XhXhXhXhXhXhXhXhXhXhXhXhXhXhXhXhXhXhXhXhXhXhX"
};
